<?xml version="1.0" standalone="no"?>
<!DOCTYPE svg PUBLIC "-//W3C//DTD SVG 20010904//EN"
 "http://www.w3.org/TR/2001/REC-SVG-20010904/DTD/svg10.dtd">
<svg version="1.0" xmlns="http://www.w3.org/2000/svg"
 width="784.000000pt" height="784.000000pt" viewBox="0 0 784.000000 784.000000"
 preserveAspectRatio="xMidYMid meet">
<metadata>
Created by potrace 1.11, written by Peter Selinger 2001-2013
</metadata>
<g transform="translate(0.000000,784.000000) scale(0.100000,-0.100000)"
fill="#000000" stroke="none">
<path d="M3802 6501 c-6 -4 -9 -98 -9 -231 0 -124 -2 -230 -5 -235 -4 -6 -116
-10 -280 -9 l-274 1 0 -275 c1 -234 -1 -275 -14 -281 -8 -3 -135 -6 -281 -5
l-266 1 1 -281 1 -280 280 -1 279 0 1 -265 c0 -146 -3 -272 -6 -280 -6 -13
-46 -15 -281 -14 l-274 1 0 -558 1 -559 -30 -1 c-16 0 -142 -1 -280 -2 l-250
-2 0 -278 c0 -270 -1 -277 -20 -278 -11 0 -137 -1 -281 -2 l-261 -2 1 260 c1
143 0 269 -2 281 -4 20 -7 21 -280 20 l-277 -1 0 -280 0 -279 272 -1 c149 0
274 -3 278 -7 4 -4 8 -130 9 -280 l1 -272 560 0 560 0 0 -280 0 -280 1393 -1
c767 0 1397 2 1400 5 4 3 7 255 7 560 l0 555 270 2 c149 0 275 1 280 2 7 1 10
194 10 559 l0 559 -265 1 c-146 0 -272 1 -281 1 -14 1 -16 32 -16 276 0 151 3
276 6 276 3 1 252 3 553 3 301 1 550 5 554 9 11 11 10 538 -1 545 -5 4 -131 7
-280 8 l-270 0 0 800 0 800 -275 -1 c-151 -1 -278 -3 -281 -3 -3 -1 -6 -106
-6 -233 0 -153 -3 -233 -10 -237 -6 -4 -132 -7 -280 -6 l-269 1 0 -275 c0
-184 -4 -276 -11 -280 -6 -4 -132 -7 -280 -6 l-268 1 0 520 0 519 -272 1
c-149 0 -276 -3 -281 -6z m-11 -2186 c1 -32 1 -517 0 -525 -1 -3 -126 -5 -278
-4 l-278 1 -1 274 c-1 151 0 277 2 280 1 3 127 5 278 5 l276 0 1 -31z"/>
<path d="M6599 5466 c-1 -1 -3 -127 -4 -281 l-2 -280 266 1 c146 1 273 2 281
3 13 1 15 37 13 263 -1 145 -2 270 -2 279 -1 14 -30 16 -276 16 -151 0 -276
-1 -276 -1z"/>
<path d="M993 4628 c0 -275 0 -278 21 -279 74 -4 536 -3 537 1 1 3 2 129 3
281 l1 275 -281 0 -281 0 0 -278z"/>
<path d="M436 4341 c-2 -3 -3 -255 -3 -558 0 -391 3 -553 11 -554 52 -5 524
-3 536 2 13 6 15 78 14 561 l0 553 -278 1 c-152 0 -278 -2 -280 -5z"/>
<path d="M6593 4071 c0 -152 3 -278 8 -281 6 -4 480 -5 539 -1 13 1 15 39 15
279 l-1 277 -280 1 -281 1 0 -276z"/>
</g>
</svg>
